<?xml version="1.0" encoding="UTF-8" standalone="no"?><!DOCTYPE svg PUBLIC "-//W3C//DTD SVG 1.1//EN" "http://www.w3.org/Graphics/SVG/1.1/DTD/svg11.dtd"><svg width="100%" height="100%" viewBox="0 0 200 115" version="1.1" xmlns="http://www.w3.org/2000/svg" xmlns:xlink="http://www.w3.org/1999/xlink" xml:space="preserve" style="fill-rule:evenodd;clip-rule:evenodd;stroke-linejoin:round;stroke-miterlimit:1.41421;"><text x="49.833px" y="90.75px" style="font-family:'LucidaGrande', 'Lucida Grande', sans-serif;font-weight:500;font-size:96px;">D</text><g id="Layer1"><clipPath id="_clip1"><rect x="8.338" y="37.811" width="188.132" height="35.752"/></clipPath><g clip-path="url(#_clip1)"><path d="M189.664,51.123l-37.632,-11.165c-1.695,-0.502 -3.383,-0.757 -5.019,-0.757c-4.729,0 -8.032,2.122 -8.032,5.16l0,4.61l-131.949,0l-14.912,-9.75c-3.417,-2.234 -9.417,-2.492 -13.403,-0.578c-1.334,0.641 -2.264,1.446 -2.796,2.315l-2.655,-1.737c-3.417,-2.234 -9.417,-2.492 -13.403,-0.578c-3.986,1.914 -4.448,5.276 -1.032,7.51l3.125,2.043c-6.763,-2.254 -15.609,-4.308 -25.405,-4.308c-26.129,-0.001 -30.03,7.077 -30.03,11.296c0,4.219 3.901,11.297 30.03,11.297c9.718,0 18.5,-2.022 25.242,-4.255l-3.043,1.989c-3.416,2.234 -2.954,5.596 1.032,7.51c1.792,0.861 3.992,1.282 6.18,1.282c2.679,0 5.342,-0.631 7.222,-1.86l2.656,-1.736c0.531,0.869 1.461,1.673 2.795,2.314c1.793,0.861 3.993,1.282 6.181,1.282c2.679,0 5.342,-0.631 7.222,-1.86l14.913,-9.749l132.029,0l0,4.609c0,3.038 3.303,5.16 8.032,5.16c1.637,0 3.325,-0.255 5.019,-0.757l37.632,-11.165c3.274,-0.971 5.151,-2.451 5.151,-4.061c0,-1.61 -1.877,-3.09 -5.15,-4.061Z" style="fill-rule:nonzero;"/></g></g></svg>